<mxfile host="app.diagrams.net" agent="Mozilla/5.0 (Windows NT 10.0; Win64; x64) AppleWebKit/537.36 (KHTML, like Gecko) Chrome/131.0.0.0 Safari/537.36" version="25.0.3">
  <diagram name="第 1 页" id="zmal-eiJHejt5k0fWd4Y">
    <mxGraphModel dx="3695" dy="1492" grid="1" gridSize="10" guides="1" tooltips="1" connect="1" arrows="1" fold="1" page="1" pageScale="1" pageWidth="827" pageHeight="1169" math="0" shadow="0">
      <root>
        <mxCell id="0" />
        <mxCell id="1" parent="0" />
        <mxCell id="kDu043KuIS-j0e6a9p6U-89" value="data management" style="swimlane;whiteSpace=wrap;html=1;startSize=23;" parent="1" vertex="1">
          <mxGeometry x="978" y="540" width="1090" height="1140" as="geometry" />
        </mxCell>
        <mxCell id="kDu043KuIS-j0e6a9p6U-91" value="文件上傳/刪除/修正" style="whiteSpace=wrap;html=1;" parent="kDu043KuIS-j0e6a9p6U-89" vertex="1">
          <mxGeometry x="50" y="145" width="120" height="60" as="geometry" />
        </mxCell>
        <mxCell id="kDu043KuIS-j0e6a9p6U-95" value="文件檢索" style="whiteSpace=wrap;html=1;" parent="kDu043KuIS-j0e6a9p6U-89" vertex="1">
          <mxGeometry x="50" y="235" width="120" height="60" as="geometry" />
        </mxCell>
        <mxCell id="kDu043KuIS-j0e6a9p6U-114" value="" style="group" parent="kDu043KuIS-j0e6a9p6U-89" vertex="1" connectable="0">
          <mxGeometry x="-120" y="500" width="310" height="240" as="geometry" />
        </mxCell>
        <mxCell id="kDu043KuIS-j0e6a9p6U-101" value="Rag" style="whiteSpace=wrap;html=1;" parent="kDu043KuIS-j0e6a9p6U-114" vertex="1">
          <mxGeometry width="310" height="240" as="geometry" />
        </mxCell>
        <mxCell id="kDu043KuIS-j0e6a9p6U-73" value="Vector&lt;br&gt;database" style="shape=datastore;whiteSpace=wrap;html=1;" parent="kDu043KuIS-j0e6a9p6U-114" vertex="1">
          <mxGeometry x="174.859375" y="24" width="121.09375" height="184.6153846153846" as="geometry" />
        </mxCell>
        <mxCell id="kDu043KuIS-j0e6a9p6U-90" value="文件權限控管" style="whiteSpace=wrap;html=1;" parent="kDu043KuIS-j0e6a9p6U-89" vertex="1">
          <mxGeometry x="50" y="55" width="120" height="60" as="geometry" />
        </mxCell>
        <mxCell id="kDu043KuIS-j0e6a9p6U-58" value="data" style="swimlane;whiteSpace=wrap;html=1;startSize=23;" parent="kDu043KuIS-j0e6a9p6U-89" vertex="1">
          <mxGeometry x="482" y="90" width="510" height="970" as="geometry" />
        </mxCell>
        <mxCell id="kDu043KuIS-j0e6a9p6U-65" value="onedrive" style="dashed=0;outlineConnect=0;html=1;align=center;labelPosition=center;verticalLabelPosition=bottom;verticalAlign=top;shape=mxgraph.webicons.onedrive;gradientColor=#DFDEDE" parent="kDu043KuIS-j0e6a9p6U-58" vertex="1">
          <mxGeometry x="374.3" y="570" width="69.4" height="64.4" as="geometry" />
        </mxCell>
        <mxCell id="kDu043KuIS-j0e6a9p6U-66" value="sharepoint" style="sketch=0;pointerEvents=1;shadow=0;dashed=0;html=1;strokeColor=none;fillColor=#505050;labelPosition=center;verticalLabelPosition=bottom;outlineConnect=0;verticalAlign=top;align=center;shape=mxgraph.office.clouds.cloud_sharepoint;" parent="kDu043KuIS-j0e6a9p6U-58" vertex="1">
          <mxGeometry x="358.5" y="460" width="101" height="61" as="geometry" />
        </mxCell>
        <mxCell id="kDu043KuIS-j0e6a9p6U-70" value="LangChain" style="rounded=0;whiteSpace=wrap;html=1;" parent="kDu043KuIS-j0e6a9p6U-58" vertex="1">
          <mxGeometry x="57" y="70" width="120" height="60" as="geometry" />
        </mxCell>
        <mxCell id="kDu043KuIS-j0e6a9p6U-71" value="API&lt;br&gt;Pandas,JDBC" style="rounded=0;whiteSpace=wrap;html=1;" parent="kDu043KuIS-j0e6a9p6U-58" vertex="1">
          <mxGeometry x="63" y="170" width="120" height="60" as="geometry" />
        </mxCell>
        <mxCell id="kDu043KuIS-j0e6a9p6U-72" style="edgeStyle=orthogonalEdgeStyle;rounded=0;orthogonalLoop=1;jettySize=auto;html=1;exitX=1;exitY=0.5;exitDx=0;exitDy=0;" parent="kDu043KuIS-j0e6a9p6U-58" source="kDu043KuIS-j0e6a9p6U-70" target="kDu043KuIS-j0e6a9p6U-59" edge="1">
          <mxGeometry relative="1" as="geometry" />
        </mxCell>
        <mxCell id="kDu043KuIS-j0e6a9p6U-61" value="銀內資料庫" style="shape=datastore;whiteSpace=wrap;html=1;" parent="kDu043KuIS-j0e6a9p6U-58" vertex="1">
          <mxGeometry x="363" y="200" width="80" height="60" as="geometry" />
        </mxCell>
        <mxCell id="kDu043KuIS-j0e6a9p6U-74" value="API" style="rounded=0;whiteSpace=wrap;html=1;" parent="kDu043KuIS-j0e6a9p6U-58" vertex="1">
          <mxGeometry x="63" y="280" width="120" height="60" as="geometry" />
        </mxCell>
        <mxCell id="kDu043KuIS-j0e6a9p6U-75" style="edgeStyle=orthogonalEdgeStyle;rounded=0;orthogonalLoop=1;jettySize=auto;html=1;entryX=0;entryY=0.5;entryDx=0;entryDy=0;" parent="kDu043KuIS-j0e6a9p6U-58" source="kDu043KuIS-j0e6a9p6U-71" target="kDu043KuIS-j0e6a9p6U-61" edge="1">
          <mxGeometry relative="1" as="geometry" />
        </mxCell>
        <mxCell id="kDu043KuIS-j0e6a9p6U-64" value="銀行內部連結" style="shape=image;html=1;verticalAlign=top;verticalLabelPosition=bottom;labelBackgroundColor=#ffffff;imageAspect=0;aspect=fixed;image=https://cdn1.iconfinder.com/data/icons/KDE_Crystal_Diamond_2.5_Classical_Mod/128x128/mimetypes/html.png" parent="kDu043KuIS-j0e6a9p6U-58" vertex="1">
          <mxGeometry x="375" y="300" width="68" height="68" as="geometry" />
        </mxCell>
        <mxCell id="kDu043KuIS-j0e6a9p6U-76" style="edgeStyle=orthogonalEdgeStyle;rounded=0;orthogonalLoop=1;jettySize=auto;html=1;" parent="kDu043KuIS-j0e6a9p6U-58" source="kDu043KuIS-j0e6a9p6U-74" target="kDu043KuIS-j0e6a9p6U-64" edge="1">
          <mxGeometry relative="1" as="geometry" />
        </mxCell>
        <mxCell id="kDu043KuIS-j0e6a9p6U-59" value="銀行內部文件" style="sketch=0;outlineConnect=0;fontColor=#232F3E;gradientColor=none;fillColor=#232F3D;strokeColor=none;dashed=0;verticalLabelPosition=bottom;verticalAlign=top;align=center;html=1;fontSize=12;fontStyle=0;aspect=fixed;pointerEvents=1;shape=mxgraph.aws4.document;" parent="kDu043KuIS-j0e6a9p6U-58" vertex="1">
          <mxGeometry x="363" y="70" width="57" height="78" as="geometry" />
        </mxCell>
        <mxCell id="kDu043KuIS-j0e6a9p6U-78" style="edgeStyle=orthogonalEdgeStyle;rounded=0;orthogonalLoop=1;jettySize=auto;html=1;exitX=1;exitY=0.5;exitDx=0;exitDy=0;" parent="kDu043KuIS-j0e6a9p6U-58" source="kDu043KuIS-j0e6a9p6U-77" target="kDu043KuIS-j0e6a9p6U-66" edge="1">
          <mxGeometry relative="1" as="geometry" />
        </mxCell>
        <mxCell id="kDu043KuIS-j0e6a9p6U-79" style="edgeStyle=orthogonalEdgeStyle;rounded=0;orthogonalLoop=1;jettySize=auto;html=1;" parent="kDu043KuIS-j0e6a9p6U-58" source="kDu043KuIS-j0e6a9p6U-77" target="kDu043KuIS-j0e6a9p6U-65" edge="1">
          <mxGeometry relative="1" as="geometry" />
        </mxCell>
        <mxCell id="kDu043KuIS-j0e6a9p6U-77" value="Microsoft Graph API" style="rounded=0;whiteSpace=wrap;html=1;" parent="kDu043KuIS-j0e6a9p6U-58" vertex="1">
          <mxGeometry x="63" y="510" width="120" height="60" as="geometry" />
        </mxCell>
        <mxCell id="kDu043KuIS-j0e6a9p6U-80" value="語音/影像" style="whiteSpace=wrap;html=1;shape=mxgraph.basic.document" parent="kDu043KuIS-j0e6a9p6U-58" vertex="1">
          <mxGeometry x="382.25" y="710" width="41.5" height="50" as="geometry" />
        </mxCell>
        <mxCell id="kDu043KuIS-j0e6a9p6U-81" value="API&lt;br&gt;(Whisper/OCR)" style="rounded=0;whiteSpace=wrap;html=1;" parent="kDu043KuIS-j0e6a9p6U-58" vertex="1">
          <mxGeometry x="73" y="700" width="120" height="60" as="geometry" />
        </mxCell>
        <mxCell id="kDu043KuIS-j0e6a9p6U-82" style="edgeStyle=orthogonalEdgeStyle;rounded=0;orthogonalLoop=1;jettySize=auto;html=1;entryX=0;entryY=0.5;entryDx=0;entryDy=0;entryPerimeter=0;" parent="kDu043KuIS-j0e6a9p6U-58" source="kDu043KuIS-j0e6a9p6U-81" target="kDu043KuIS-j0e6a9p6U-80" edge="1">
          <mxGeometry relative="1" as="geometry" />
        </mxCell>
        <mxCell id="kDu043KuIS-j0e6a9p6U-83" value="非結構化資料" style="whiteSpace=wrap;html=1;shape=mxgraph.basic.document" parent="kDu043KuIS-j0e6a9p6U-58" vertex="1">
          <mxGeometry x="382.25" y="820" width="41.5" height="50" as="geometry" />
        </mxCell>
        <mxCell id="kDu043KuIS-j0e6a9p6U-85" style="edgeStyle=orthogonalEdgeStyle;rounded=0;orthogonalLoop=1;jettySize=auto;html=1;" parent="kDu043KuIS-j0e6a9p6U-58" source="kDu043KuIS-j0e6a9p6U-84" target="kDu043KuIS-j0e6a9p6U-83" edge="1">
          <mxGeometry relative="1" as="geometry" />
        </mxCell>
        <mxCell id="kDu043KuIS-j0e6a9p6U-84" value="ELK satck" style="rounded=0;whiteSpace=wrap;html=1;" parent="kDu043KuIS-j0e6a9p6U-58" vertex="1">
          <mxGeometry x="80" y="810" width="120" height="60" as="geometry" />
        </mxCell>
        <mxCell id="kDu043KuIS-j0e6a9p6U-86" style="edgeStyle=orthogonalEdgeStyle;rounded=0;orthogonalLoop=1;jettySize=auto;html=1;" parent="kDu043KuIS-j0e6a9p6U-89" source="kDu043KuIS-j0e6a9p6U-58" target="kDu043KuIS-j0e6a9p6U-73" edge="1">
          <mxGeometry relative="1" as="geometry" />
        </mxCell>
        <mxCell id="kDu043KuIS-j0e6a9p6U-97" style="edgeStyle=orthogonalEdgeStyle;rounded=0;orthogonalLoop=1;jettySize=auto;html=1;entryX=0;entryY=0.5;entryDx=0;entryDy=0;" parent="1" source="kDu043KuIS-j0e6a9p6U-12" target="kDu043KuIS-j0e6a9p6U-96" edge="1">
          <mxGeometry relative="1" as="geometry">
            <mxPoint x="870" y="491" as="sourcePoint" />
          </mxGeometry>
        </mxCell>
        <mxCell id="kDu043KuIS-j0e6a9p6U-100" style="edgeStyle=orthogonalEdgeStyle;rounded=0;orthogonalLoop=1;jettySize=auto;html=1;entryX=1;entryY=0.5;entryDx=0;entryDy=0;" parent="1" source="kDu043KuIS-j0e6a9p6U-30" target="kDu043KuIS-j0e6a9p6U-98" edge="1">
          <mxGeometry relative="1" as="geometry" />
        </mxCell>
        <mxCell id="kDu043KuIS-j0e6a9p6U-96" value="輸入API" style="whiteSpace=wrap;html=1;" parent="1" vertex="1">
          <mxGeometry x="1060" y="290" width="120" height="60" as="geometry" />
        </mxCell>
        <mxCell id="kDu043KuIS-j0e6a9p6U-98" value="輸出API" style="whiteSpace=wrap;html=1;" parent="1" vertex="1">
          <mxGeometry x="-90" y="360" width="120" height="60" as="geometry" />
        </mxCell>
        <mxCell id="kDu043KuIS-j0e6a9p6U-116" style="edgeStyle=orthogonalEdgeStyle;rounded=0;orthogonalLoop=1;jettySize=auto;html=1;" parent="1" source="kDu043KuIS-j0e6a9p6U-115" target="kDu043KuIS-j0e6a9p6U-96" edge="1">
          <mxGeometry relative="1" as="geometry">
            <mxPoint x="1190" y="340" as="targetPoint" />
          </mxGeometry>
        </mxCell>
        <mxCell id="kDu043KuIS-j0e6a9p6U-30" value="work flow dify" style="swimlane;whiteSpace=wrap;html=1;" parent="1" vertex="1">
          <mxGeometry x="160" y="360" width="720" height="600" as="geometry" />
        </mxCell>
        <mxCell id="kDu043KuIS-j0e6a9p6U-55" value="" style="sketch=0;pointerEvents=1;shadow=0;dashed=0;html=1;strokeColor=none;fillColor=#505050;labelPosition=center;verticalLabelPosition=bottom;verticalAlign=top;outlineConnect=0;align=center;shape=mxgraph.office.users.call_center_agent;" parent="kDu043KuIS-j0e6a9p6U-30" vertex="1">
          <mxGeometry x="60" y="430" width="46" height="55" as="geometry" />
        </mxCell>
        <mxCell id="kDu043KuIS-j0e6a9p6U-9" value="agent management" style="swimlane;whiteSpace=wrap;html=1;" parent="kDu043KuIS-j0e6a9p6U-30" vertex="1">
          <mxGeometry x="250" y="80" width="436" height="495" as="geometry">
            <mxRectangle x="135" y="165" width="130" height="30" as="alternateBounds" />
          </mxGeometry>
        </mxCell>
        <mxCell id="kDu043KuIS-j0e6a9p6U-27" value="" style="rounded=0;whiteSpace=wrap;html=1;" parent="kDu043KuIS-j0e6a9p6U-9" vertex="1">
          <mxGeometry x="17" y="30" width="163" height="390" as="geometry" />
        </mxCell>
        <mxCell id="kDu043KuIS-j0e6a9p6U-12" value="XX　model" style="sketch=0;outlineConnect=0;fontColor=#232F3E;gradientColor=none;fillColor=#01A88D;strokeColor=none;dashed=0;verticalLabelPosition=bottom;verticalAlign=top;align=center;html=1;fontSize=12;fontStyle=0;aspect=fixed;pointerEvents=1;shape=mxgraph.aws4.sagemaker_model;" parent="kDu043KuIS-j0e6a9p6U-9" vertex="1">
          <mxGeometry x="331" y="36" width="78" height="78" as="geometry" />
        </mxCell>
        <mxCell id="kDu043KuIS-j0e6a9p6U-23" value="model" style="whiteSpace=wrap;html=1;fillColor=#dae8fc;strokeColor=#6c8ebf;" parent="kDu043KuIS-j0e6a9p6U-9" vertex="1">
          <mxGeometry x="211" y="50" width="90" height="50" as="geometry" />
        </mxCell>
        <mxCell id="kDu043KuIS-j0e6a9p6U-29" value="" style="group" parent="kDu043KuIS-j0e6a9p6U-9" vertex="1" connectable="0">
          <mxGeometry x="32" y="50" width="90" height="286" as="geometry" />
        </mxCell>
        <mxCell id="kDu043KuIS-j0e6a9p6U-22" value="context" style="whiteSpace=wrap;html=1;fillColor=#dae8fc;strokeColor=#6c8ebf;" parent="kDu043KuIS-j0e6a9p6U-29" vertex="1">
          <mxGeometry y="236" width="90" height="50" as="geometry" />
        </mxCell>
        <mxCell id="kDu043KuIS-j0e6a9p6U-28" value="" style="group" parent="kDu043KuIS-j0e6a9p6U-29" vertex="1" connectable="0">
          <mxGeometry width="90" height="210" as="geometry" />
        </mxCell>
        <mxCell id="kDu043KuIS-j0e6a9p6U-11" value="fine tune" style="whiteSpace=wrap;html=1;fillColor=#dae8fc;strokeColor=#6c8ebf;" parent="kDu043KuIS-j0e6a9p6U-28" vertex="1">
          <mxGeometry width="90" height="50" as="geometry" />
        </mxCell>
        <mxCell id="kDu043KuIS-j0e6a9p6U-15" value="trainning" style="whiteSpace=wrap;html=1;fillColor=#dae8fc;strokeColor=#6c8ebf;" parent="kDu043KuIS-j0e6a9p6U-28" vertex="1">
          <mxGeometry y="76" width="90" height="50" as="geometry" />
        </mxCell>
        <mxCell id="kDu043KuIS-j0e6a9p6U-20" value="assign rag" style="whiteSpace=wrap;html=1;fillColor=#dae8fc;strokeColor=#6c8ebf;" parent="kDu043KuIS-j0e6a9p6U-28" vertex="1">
          <mxGeometry y="160" width="90" height="50" as="geometry" />
        </mxCell>
        <mxCell id="kDu043KuIS-j0e6a9p6U-112" value="token control" style="whiteSpace=wrap;html=1;fillColor=#dae8fc;strokeColor=#6c8ebf;" parent="kDu043KuIS-j0e6a9p6U-9" vertex="1">
          <mxGeometry x="32" y="355" width="90" height="50" as="geometry" />
        </mxCell>
        <mxCell id="kDu043KuIS-j0e6a9p6U-119" style="edgeStyle=orthogonalEdgeStyle;rounded=0;orthogonalLoop=1;jettySize=auto;html=1;" parent="kDu043KuIS-j0e6a9p6U-30" source="kDu043KuIS-j0e6a9p6U-51" target="kDu043KuIS-j0e6a9p6U-105" edge="1">
          <mxGeometry relative="1" as="geometry" />
        </mxCell>
        <mxCell id="kDu043KuIS-j0e6a9p6U-51" value="" style="sketch=0;pointerEvents=1;shadow=0;dashed=0;html=1;strokeColor=none;fillColor=#505050;labelPosition=center;verticalLabelPosition=bottom;verticalAlign=top;outlineConnect=0;align=center;shape=mxgraph.office.users.call_center_agent;" parent="kDu043KuIS-j0e6a9p6U-30" vertex="1">
          <mxGeometry x="74" y="150" width="46" height="55" as="geometry" />
        </mxCell>
        <mxCell id="kDu043KuIS-j0e6a9p6U-103" value="workflow管理" style="whiteSpace=wrap;html=1;" parent="kDu043KuIS-j0e6a9p6U-30" vertex="1">
          <mxGeometry x="74" y="50" width="120" height="60" as="geometry" />
        </mxCell>
        <mxCell id="kDu043KuIS-j0e6a9p6U-120" style="edgeStyle=orthogonalEdgeStyle;rounded=0;orthogonalLoop=1;jettySize=auto;html=1;" parent="kDu043KuIS-j0e6a9p6U-30" source="kDu043KuIS-j0e6a9p6U-105" target="kDu043KuIS-j0e6a9p6U-55" edge="1">
          <mxGeometry relative="1" as="geometry" />
        </mxCell>
        <mxCell id="kDu043KuIS-j0e6a9p6U-105" value="" style="sketch=0;pointerEvents=1;shadow=0;dashed=0;html=1;strokeColor=none;fillColor=#505050;labelPosition=center;verticalLabelPosition=bottom;verticalAlign=top;outlineConnect=0;align=center;shape=mxgraph.office.users.call_center_agent;" parent="kDu043KuIS-j0e6a9p6U-30" vertex="1">
          <mxGeometry x="100" y="272.5" width="46" height="55" as="geometry" />
        </mxCell>
        <mxCell id="l8onL6K01JRs-kmVotD8-2" value="" style="sketch=0;pointerEvents=1;shadow=0;dashed=0;html=1;strokeColor=none;fillColor=#505050;labelPosition=center;verticalLabelPosition=bottom;verticalAlign=top;outlineConnect=0;align=center;shape=mxgraph.office.users.call_center_agent;" parent="kDu043KuIS-j0e6a9p6U-30" vertex="1">
          <mxGeometry x="254" y="25" width="46" height="55" as="geometry" />
        </mxCell>
        <mxCell id="kDu043KuIS-j0e6a9p6U-115" value="Fubon KM" style="whiteSpace=wrap;html=1;" parent="1" vertex="1">
          <mxGeometry x="1290" y="290" width="120" height="60" as="geometry" />
        </mxCell>
        <mxCell id="kDu043KuIS-j0e6a9p6U-118" style="edgeStyle=orthogonalEdgeStyle;rounded=0;orthogonalLoop=1;jettySize=auto;html=1;" parent="1" source="kDu043KuIS-j0e6a9p6U-12" target="kDu043KuIS-j0e6a9p6U-101" edge="1">
          <mxGeometry relative="1" as="geometry">
            <Array as="points">
              <mxPoint x="900" y="515" />
              <mxPoint x="900" y="635" />
              <mxPoint x="1013" y="635" />
            </Array>
          </mxGeometry>
        </mxCell>
        <mxCell id="kDu043KuIS-j0e6a9p6U-1" value="地端Server(群聯)" style="sketch=0;outlineConnect=0;fontColor=#232F3E;gradientColor=none;fillColor=#232F3D;strokeColor=none;dashed=0;verticalLabelPosition=bottom;verticalAlign=top;align=center;html=1;fontSize=12;fontStyle=0;aspect=fixed;pointerEvents=1;shape=mxgraph.aws4.traditional_server;" parent="1" vertex="1">
          <mxGeometry x="540" y="960" width="45" height="78" as="geometry" />
        </mxCell>
      </root>
    </mxGraphModel>
  </diagram>
</mxfile>
